<svg width="654" height="1163" viewBox="0 0 654 1163" fill="none" xmlns="http://www.w3.org/2000/svg">
<g clip-path="url(#clip0_6_2)">
<path d="M507.94 1091.35H160.899C148.253 1091.35 135.73 1088.86 124.047 1084.02C112.363 1079.18 101.747 1072.09 92.8047 1063.14C83.8624 1054.2 76.7689 1043.58 71.9294 1031.9C67.0899 1020.21 64.5991 1007.69 64.5991 995.043V96.3104C64.628 70.7761 74.7832 46.296 92.8367 28.2406C110.89 10.1851 135.368 0.028906 160.899 0H507.938C533.47 0.0288268 557.948 10.185 576.001 28.2405C594.055 46.2959 604.21 70.7761 604.239 96.3104V258.636H610.218V378.237H604.239V995.043C604.239 1020.59 594.093 1045.08 576.034 1063.14C557.974 1081.21 533.48 1091.35 507.94 1091.35ZM160.899 2.99092C136.161 3.01886 112.443 12.8597 94.9503 30.3544C77.4574 47.8491 67.6177 71.5691 67.5897 96.3104V995.043C67.5896 1007.3 70.003 1019.43 74.6921 1030.75C79.3813 1042.08 86.2544 1052.36 94.919 1061.03C103.584 1069.7 113.87 1076.57 125.191 1081.26C136.512 1085.95 148.645 1088.36 160.899 1088.36H507.938C532.686 1088.36 556.419 1078.53 573.918 1061.03C591.417 1043.53 601.248 1019.79 601.248 995.044V375.246H607.228V261.627H601.248V96.3104C601.22 71.5691 591.381 47.8491 573.888 30.3544C556.395 12.8597 532.677 3.01886 507.939 2.99092H160.899Z" fill="#3F3D56"/>
<path d="M511.762 1066.69H163.058C143.891 1066.67 125.514 1059.04 111.96 1045.49C98.4067 1031.93 90.7825 1013.55 90.7603 994.383V96.9719C90.7824 77.8021 98.4067 59.4238 111.96 45.8686C125.514 32.3135 143.89 24.6885 163.058 24.6663H207.583L206.745 26.7255C204.759 31.607 204.003 36.9018 204.543 42.1442C205.083 47.3866 206.903 52.416 209.842 56.79C212.782 61.164 216.751 64.7485 221.401 67.2282C226.051 69.708 231.239 71.007 236.508 71.0109H435.323C440.592 71.0068 445.78 69.7077 450.43 67.2278C455.079 64.748 459.048 61.1635 461.988 56.7896C464.927 52.4157 466.747 47.3863 467.287 42.144C467.827 36.9016 467.071 31.6069 465.085 26.7255L464.247 24.6663H511.762C530.93 24.6886 549.306 32.3137 562.86 45.8688C576.414 59.4239 584.038 77.8022 584.06 96.9719V994.383C584.038 1013.55 576.414 1031.93 562.86 1045.49C549.306 1059.04 530.93 1066.67 511.762 1066.69ZM163.058 27.6572C144.683 27.6785 127.067 34.988 114.074 47.9825C101.081 60.9769 93.7721 78.595 93.7509 96.9719V994.383C93.7722 1012.76 101.081 1030.38 114.074 1043.37C127.067 1056.37 144.683 1063.68 163.058 1063.7H511.762C530.137 1063.68 547.753 1056.37 560.746 1043.37C573.739 1030.38 581.048 1012.76 581.069 994.383V96.9719C581.048 78.5951 573.739 60.977 560.746 47.9826C547.753 34.9882 530.137 27.6785 511.762 27.6572H468.62C470.394 32.9419 470.886 38.5727 470.055 44.0851C469.225 49.5974 467.096 54.8332 463.843 59.3603C460.591 63.8875 456.308 67.5762 451.349 70.1219C446.391 72.6677 440.898 73.9976 435.324 74.0019H236.507C230.933 73.9977 225.44 72.6679 220.481 70.1222C215.522 67.5765 211.24 63.8878 207.987 59.3607C204.734 54.8336 202.605 49.5977 201.774 44.0853C200.944 38.5729 201.436 32.942 203.21 27.6572H163.058Z" fill="#CCCCCC"/>
<path d="M622.415 584.375H31.5852C23.2112 584.366 15.1828 581.035 9.26146 575.113C3.34011 569.191 0.00939283 561.161 -3.05176e-05 552.786V363.255C0.00939283 354.88 3.34011 346.851 9.26146 340.929C15.1828 335.007 23.2112 331.676 31.5852 331.667H622.415C630.789 331.676 638.817 335.007 644.739 340.929C650.66 346.851 653.991 354.88 654 363.255V552.786C653.991 561.161 650.66 569.191 644.739 575.113C638.817 581.035 630.789 584.366 622.415 584.375Z" fill="white"/>
<path d="M622.415 584.375H31.5852C23.2112 584.366 15.1828 581.035 9.26146 575.113C3.34011 569.191 0.00939283 561.161 -3.05176e-05 552.786V363.255C0.00939283 354.88 3.34011 346.851 9.26146 340.929C15.1828 335.007 23.2112 331.676 31.5852 331.667H622.415C630.789 331.676 638.817 335.007 644.739 340.929C650.66 346.851 653.991 354.88 654 363.255V552.786C653.991 561.161 650.66 569.191 644.739 575.113C638.817 581.035 630.789 584.366 622.415 584.375ZM31.5852 335.383C24.1964 335.391 17.1126 338.33 11.8879 343.556C6.66316 348.781 3.72424 355.865 3.71586 363.255V552.786C3.72424 560.176 6.66316 567.261 11.8879 572.486C17.1126 577.711 24.1964 580.65 31.5852 580.659H622.415C629.804 580.65 636.887 577.711 642.112 572.486C647.337 567.261 650.276 560.176 650.284 552.786V363.255C650.276 355.865 647.337 348.781 642.112 343.556C636.887 338.33 629.804 335.391 622.415 335.383H31.5852Z" fill="#3F3D56"/>
<path d="M404.478 447.801H198.246C194.303 447.801 190.523 446.235 187.735 443.447C184.948 440.659 183.382 436.878 183.382 432.936C183.382 428.993 184.948 425.212 187.735 422.424C190.523 419.637 194.303 418.071 198.246 418.071H404.478C408.421 418.071 412.201 419.637 414.989 422.424C417.776 425.212 419.342 428.993 419.342 432.936C419.342 436.878 417.776 440.659 414.989 443.447C412.201 446.235 408.421 447.801 404.478 447.801Z" fill="#007BFF"/>
<path d="M595.848 497.971H198.246C194.303 497.971 190.523 496.405 187.735 493.617C184.948 490.829 183.382 487.048 183.382 483.106C183.382 479.163 184.948 475.382 187.735 472.595C190.523 469.807 194.303 468.241 198.246 468.241H595.848C599.79 468.241 603.571 469.807 606.358 472.595C609.145 475.382 610.711 479.163 610.711 483.106C610.711 487.048 609.145 490.829 606.358 493.617C603.571 496.405 599.79 497.971 595.848 497.971Z" fill="#007BFF"/>
<path d="M99.0276 513.765C129.811 513.765 154.766 488.808 154.766 458.021C154.766 427.234 129.811 402.276 99.0276 402.276C68.244 402.276 43.289 427.234 43.289 458.021C43.289 488.808 68.244 513.765 99.0276 513.765Z" fill="#007BFF"/>
<path d="M595.826 558.361H543.803C539.861 558.361 536.08 556.795 533.293 554.007C530.505 551.219 528.939 547.438 528.939 543.496C528.939 539.553 530.505 535.772 533.293 532.984C536.08 530.197 539.861 528.631 543.803 528.631H595.826C597.778 528.631 599.71 529.015 601.514 529.762C603.317 530.509 604.956 531.604 606.336 532.984C607.716 534.365 608.811 536.004 609.558 537.807C610.305 539.611 610.689 541.544 610.689 543.496C610.689 545.448 610.305 547.381 609.558 549.184C608.811 550.988 607.716 552.627 606.336 554.007C604.956 555.387 603.317 556.482 601.514 557.229C599.71 557.976 597.778 558.361 595.826 558.361Z" fill="white"/>
<path d="M595.826 558.361H543.803C539.861 558.361 536.08 556.795 533.293 554.007C530.505 551.219 528.939 547.438 528.939 543.496C528.939 539.553 530.505 535.772 533.293 532.984C536.08 530.197 539.861 528.631 543.803 528.631H595.826C597.778 528.631 599.71 529.015 601.514 529.762C603.317 530.509 604.956 531.604 606.336 532.984C607.716 534.365 608.811 536.004 609.558 537.807C610.305 539.611 610.689 541.544 610.689 543.496C610.689 545.448 610.305 547.381 609.558 549.184C608.811 550.988 607.716 552.627 606.336 554.007C604.956 555.387 603.317 556.482 601.514 557.229C599.71 557.976 597.778 558.361 595.826 558.361Z" fill="#CCCCCC"/>
<path d="M506.334 283.074H177.573C172.913 283.069 168.446 281.215 165.151 277.92C161.856 274.625 160.002 270.157 159.997 265.497V160.034C160.002 155.374 161.856 150.906 165.151 147.611C168.446 144.316 172.913 142.462 177.572 142.457H506.334C510.993 142.462 515.46 144.316 518.755 147.611C522.05 150.906 523.904 155.374 523.909 160.034V265.497C523.904 270.157 522.05 274.625 518.755 277.92C515.46 281.215 510.993 283.069 506.334 283.074ZM177.573 144.525C173.461 144.53 169.519 146.165 166.612 149.073C163.705 151.98 162.07 155.922 162.065 160.034V265.497C162.07 269.609 163.705 273.551 166.612 276.458C169.519 279.366 173.461 281.001 177.573 281.006H506.334C510.445 281.001 514.387 279.366 517.294 276.458C520.201 273.551 521.836 269.609 521.841 265.497V160.034C521.836 155.922 520.201 151.98 517.294 149.073C514.387 146.165 510.445 144.53 506.334 144.525H177.573Z" fill="#CCCCCC"/>
<path d="M385.065 207.079H270.309C268.117 207.076 266.017 206.203 264.468 204.652C262.919 203.101 262.049 200.999 262.049 198.807C262.049 196.615 262.919 194.513 264.468 192.962C266.017 191.411 268.117 190.539 270.309 190.536H385.065C387.257 190.539 389.358 191.411 390.906 192.962C392.455 194.513 393.325 196.615 393.325 198.807C393.325 200.999 392.455 203.101 390.906 204.652C389.358 206.203 387.257 207.076 385.065 207.079Z" fill="#E6E6E6"/>
<path d="M491.551 234.995H270.309C268.117 234.992 266.016 234.12 264.468 232.569C262.919 231.018 262.049 228.916 262.049 226.724C262.049 224.532 262.919 222.43 264.468 220.879C266.016 219.328 268.117 218.455 270.309 218.452H491.551C492.638 218.451 493.714 218.664 494.719 219.079C495.724 219.494 496.637 220.103 497.406 220.871C498.175 221.639 498.785 222.552 499.202 223.556C499.618 224.56 499.832 225.637 499.832 226.724C499.832 227.811 499.618 228.887 499.202 229.892C498.785 230.896 498.175 231.808 497.406 232.577C496.637 233.345 495.724 233.954 494.719 234.369C493.714 234.784 492.638 234.997 491.551 234.995Z" fill="#E6E6E6"/>
<path d="M215.1 243.784C232.229 243.784 246.115 229.896 246.115 212.765C246.115 195.634 232.229 181.747 215.1 181.747C197.971 181.747 184.085 195.634 184.085 212.765C184.085 229.896 197.971 243.784 215.1 243.784Z" fill="#E6E6E6"/>
<path d="M491.538 268.599H462.591C461.504 268.6 460.427 268.387 459.422 267.972C458.418 267.557 457.505 266.948 456.735 266.18C455.966 265.412 455.356 264.499 454.94 263.495C454.523 262.491 454.309 261.414 454.309 260.327C454.309 259.24 454.523 258.163 454.94 257.159C455.356 256.155 455.966 255.243 456.735 254.474C457.505 253.706 458.418 253.097 459.422 252.682C460.427 252.267 461.504 252.054 462.591 252.056H491.538C493.73 252.058 495.831 252.931 497.379 254.482C498.928 256.033 499.798 258.135 499.798 260.327C499.798 262.519 498.928 264.621 497.379 266.172C495.831 267.723 493.73 268.596 491.538 268.599Z" fill="white"/>
<path d="M491.538 268.599H462.591C461.504 268.6 460.427 268.387 459.422 267.972C458.418 267.557 457.505 266.948 456.735 266.18C455.966 265.412 455.356 264.499 454.94 263.495C454.523 262.491 454.309 261.414 454.309 260.327C454.309 259.24 454.523 258.163 454.94 257.159C455.356 256.155 455.966 255.243 456.735 254.474C457.505 253.706 458.418 253.097 459.422 252.682C460.427 252.267 461.504 252.054 462.591 252.056H491.538C493.73 252.058 495.831 252.931 497.379 254.482C498.928 256.033 499.798 258.135 499.798 260.327C499.798 262.519 498.928 264.621 497.379 266.172C495.831 267.723 493.73 268.596 491.538 268.599Z" fill="#CCCCCC"/>
<path d="M506.334 770.594H177.573C172.913 770.589 168.446 768.735 165.151 765.44C161.856 762.145 160.002 757.677 159.997 753.017V647.554C160.002 642.894 161.856 638.426 165.151 635.131C168.446 631.836 172.913 629.982 177.572 629.977H506.334C510.993 629.982 515.46 631.836 518.755 635.131C522.05 638.426 523.904 642.894 523.909 647.554V753.017C523.904 757.677 522.05 762.145 518.755 765.44C515.46 768.735 510.993 770.589 506.334 770.594ZM177.573 632.045C173.461 632.049 169.519 633.685 166.612 636.592C163.705 639.5 162.07 643.442 162.065 647.554V753.017C162.07 757.129 163.705 761.071 166.612 763.978C169.519 766.886 173.461 768.521 177.573 768.526H506.334C510.445 768.521 514.387 766.886 517.294 763.978C520.201 761.071 521.836 757.129 521.841 753.017V647.554C521.836 643.442 520.201 639.5 517.294 636.592C514.387 633.685 510.445 632.049 506.334 632.045H177.573Z" fill="#CCCCCC"/>
<path d="M385.065 694.599H270.309C268.115 694.599 266.012 693.727 264.461 692.176C262.91 690.625 262.038 688.521 262.038 686.327C262.038 684.133 262.91 682.029 264.461 680.478C266.012 678.927 268.115 678.055 270.309 678.055H385.065C387.257 678.058 389.358 678.931 390.906 680.482C392.455 682.033 393.325 684.135 393.325 686.327C393.325 688.519 392.455 690.621 390.906 692.172C389.358 693.723 387.257 694.596 385.065 694.599Z" fill="#E6E6E6"/>
<path d="M491.551 722.515H270.309C268.117 722.512 266.016 721.639 264.468 720.089C262.919 718.538 262.049 716.435 262.049 714.244C262.049 712.052 262.919 709.949 264.468 708.399C266.016 706.848 268.117 705.975 270.309 705.972H491.551C493.744 705.972 495.848 706.843 497.399 708.395C498.95 709.946 499.821 712.05 499.821 714.244C499.821 716.437 498.95 718.541 497.399 720.092C495.848 721.644 493.744 722.515 491.551 722.515Z" fill="#E6E6E6"/>
<path d="M215.1 731.304C232.229 731.304 246.115 717.416 246.115 700.285C246.115 683.154 232.229 669.267 215.1 669.267C197.971 669.267 184.085 683.154 184.085 700.285C184.085 717.416 197.971 731.304 215.1 731.304Z" fill="#E6E6E6"/>
<path d="M491.538 756.118H462.591C460.397 756.118 458.294 755.247 456.743 753.696C455.191 752.145 454.32 750.041 454.32 747.847C454.32 745.653 455.191 743.549 456.743 741.998C458.294 740.447 460.397 739.575 462.591 739.575H491.538C493.73 739.578 495.831 740.451 497.379 742.002C498.928 743.553 499.798 745.655 499.798 747.847C499.798 750.039 498.928 752.141 497.379 753.692C495.831 755.243 493.73 756.116 491.538 756.118Z" fill="white"/>
<path d="M491.538 756.118H462.591C460.397 756.118 458.294 755.247 456.743 753.696C455.191 752.145 454.32 750.041 454.32 747.847C454.32 745.653 455.191 743.549 456.743 741.998C458.294 740.447 460.397 739.575 462.591 739.575H491.538C493.73 739.578 495.831 740.451 497.379 742.002C498.928 743.553 499.798 745.655 499.798 747.847C499.798 750.039 498.928 752.141 497.379 753.692C495.831 755.243 493.73 756.116 491.538 756.118Z" fill="#CCCCCC"/>
<path d="M506.334 966.499H177.573C172.913 966.494 168.446 964.64 165.151 961.345C161.856 958.05 160.002 953.582 159.997 948.922V843.459C160.002 838.799 161.856 834.331 165.151 831.036C168.446 827.741 172.913 825.887 177.572 825.882H506.334C510.993 825.887 515.46 827.741 518.755 831.036C522.05 834.331 523.904 838.799 523.909 843.459V948.922C523.904 953.582 522.05 958.05 518.755 961.345C515.46 964.64 510.993 966.494 506.334 966.499ZM177.573 827.95C173.461 827.954 169.519 829.59 166.612 832.498C163.705 835.405 162.07 839.347 162.065 843.459V948.922C162.07 953.034 163.705 956.976 166.612 959.883C169.519 962.791 173.461 964.426 177.573 964.431H506.334C510.445 964.426 514.387 962.791 517.294 959.883C520.201 956.976 521.836 953.034 521.841 948.922V843.459C521.836 839.347 520.201 835.405 517.294 832.497C514.387 829.59 510.445 827.954 506.334 827.95H177.573Z" fill="#CCCCCC"/>
<path d="M385.065 890.504H270.309C268.115 890.504 266.012 889.632 264.461 888.081C262.91 886.53 262.038 884.426 262.038 882.232C262.038 880.038 262.91 877.934 264.461 876.383C266.012 874.832 268.115 873.961 270.309 873.961H385.065C387.257 873.964 389.358 874.836 390.906 876.387C392.455 877.938 393.325 880.04 393.325 882.232C393.325 884.424 392.455 886.526 390.906 888.077C389.358 889.628 387.257 890.501 385.065 890.504Z" fill="#E6E6E6"/>
<path d="M491.551 918.42H270.309C268.117 918.417 266.016 917.545 264.468 915.994C262.919 914.443 262.049 912.341 262.049 910.149C262.049 907.957 262.919 905.855 264.468 904.304C266.016 902.753 268.117 901.88 270.309 901.877H491.551C493.744 901.877 495.848 902.749 497.399 904.3C498.95 905.851 499.821 907.955 499.821 910.149C499.821 912.343 498.95 914.446 497.399 915.998C495.848 917.549 493.744 918.42 491.551 918.42Z" fill="#E6E6E6"/>
<path d="M215.1 927.209C232.229 927.209 246.115 913.321 246.115 896.19C246.115 879.059 232.229 865.172 215.1 865.172C197.971 865.172 184.085 879.059 184.085 896.19C184.085 913.321 197.971 927.209 215.1 927.209Z" fill="#E6E6E6"/>
<path d="M491.538 952.024H462.591C460.397 952.024 458.294 951.152 456.743 949.601C455.191 948.05 454.32 945.946 454.32 943.752C454.32 941.558 455.191 939.454 456.743 937.903C458.294 936.352 460.397 935.48 462.591 935.48H491.538C493.73 935.483 495.831 936.356 497.379 937.907C498.928 939.458 499.798 941.56 499.798 943.752C499.798 945.944 498.928 948.046 497.379 949.597C495.831 951.148 493.73 952.021 491.538 952.024Z" fill="white"/>
<path d="M491.538 952.024H462.591C460.397 952.024 458.294 951.152 456.743 949.601C455.191 948.05 454.32 945.946 454.32 943.752C454.32 941.558 455.191 939.454 456.743 937.903C458.294 936.352 460.397 935.48 462.591 935.48H491.538C493.73 935.483 495.831 936.356 497.379 937.907C498.928 939.458 499.798 941.56 499.798 943.752C499.798 945.944 498.928 948.046 497.379 949.597C495.831 951.148 493.73 952.021 491.538 952.024Z" fill="#CCCCCC"/>
<path d="M301.538 1145.23H319.87L328.591 1074.51L301.535 1074.51L301.538 1145.23Z" fill="#FFB8B8"/>
<path d="M296.862 1139.24L332.964 1139.24H332.965C335.987 1139.24 338.978 1139.84 341.77 1140.99C344.561 1142.15 347.098 1143.84 349.234 1145.98C351.371 1148.12 353.065 1150.65 354.221 1153.44C355.378 1156.24 355.973 1159.23 355.973 1162.25V1163L296.863 1163L296.862 1139.24Z" fill="#2F2E41"/>
<path d="M228.268 1145.23H246.601L255.321 1074.51L228.265 1074.51L228.268 1145.23Z" fill="#FFB8B8"/>
<path d="M223.592 1139.24L259.694 1139.24H259.696C262.717 1139.24 265.709 1139.84 268.5 1140.99C271.292 1142.15 273.828 1143.84 275.964 1145.98C278.101 1148.12 279.795 1150.65 280.952 1153.44C282.108 1156.24 282.703 1159.23 282.703 1162.25V1163L223.593 1163L223.592 1139.24Z" fill="#2F2E41"/>
<path d="M305.197 655.643C325.48 655.643 341.923 639.198 341.923 618.913C341.923 598.627 325.48 582.183 305.197 582.183C284.914 582.183 268.471 598.627 268.471 618.913C268.471 639.198 284.914 655.643 305.197 655.643Z" fill="#FFB8B8"/>
<path d="M329.894 1129.96H295.875C294.984 1129.96 294.102 1129.79 293.281 1129.44C292.459 1129.1 291.714 1128.6 291.088 1127.96C290.462 1127.33 289.968 1126.58 289.635 1125.75C289.302 1124.93 289.136 1124.04 289.146 1123.15L291.123 961.597C291.13 961.023 290.917 960.469 290.528 960.047C290.139 959.625 289.603 959.369 289.03 959.331C288.458 959.292 287.892 959.475 287.45 959.841C287.008 960.207 286.723 960.728 286.654 961.298L266.855 1124.05C266.655 1125.68 265.866 1127.18 264.635 1128.27C263.405 1129.36 261.819 1129.96 260.175 1129.96H225.829C224.902 1129.96 223.984 1129.77 223.134 1129.4C222.283 1129.03 221.519 1128.49 220.889 1127.8C220.259 1127.12 219.777 1126.32 219.473 1125.44C219.168 1124.57 219.049 1123.64 219.121 1122.71L241.801 832.479L242.418 832.412L351.02 820.682L336.615 1123.56C336.535 1125.28 335.792 1126.91 334.54 1128.11C333.288 1129.3 331.624 1129.97 329.894 1129.96Z" fill="#2F2E41"/>
<path d="M243.123 850.296C241.378 850.292 239.703 849.61 238.452 848.394C237.201 847.178 236.472 845.523 236.418 843.779C235.825 825.427 234.809 761.929 246.619 715.311C249.842 702.576 257.077 691.216 267.254 682.911C277.43 674.606 290.009 669.796 303.131 669.193C316.045 668.487 328.855 671.867 339.741 678.852C350.627 685.838 359.037 696.074 363.778 708.11C383.629 758.511 402.383 820.637 379.001 830.381C348.355 843.151 267.566 848.843 243.536 850.283C243.397 850.292 243.26 850.296 243.123 850.296Z" fill="#007BFF"/>
<path d="M383.489 581.789C384.066 582.382 384.689 582.929 385.352 583.424L381.497 657.488L365.461 665.699L374.688 691.523L404.489 679.746C406.896 678.795 408.93 677.088 410.285 674.882C411.64 672.676 412.243 670.09 412.004 667.512L404.197 583.498C406.751 581.592 408.665 578.953 409.684 575.932C410.702 572.912 410.777 569.652 409.898 566.588C409.019 563.524 407.229 560.8 404.764 558.778C402.299 556.757 399.278 555.534 396.101 555.272C392.924 555.009 389.743 555.721 386.981 557.311C384.218 558.901 382.005 561.295 380.636 564.173C379.267 567.052 378.806 570.279 379.316 573.426C379.825 576.573 381.281 579.49 383.489 581.789Z" fill="#FFB8B8"/>
<path d="M381.801 660.245L393.082 692.306C393.403 693.219 393.523 694.189 393.435 695.152C393.347 696.115 393.053 697.048 392.572 697.887C392.091 698.726 391.435 699.452 390.648 700.014C389.862 700.577 388.963 700.963 388.014 701.147L354.75 707.589C350.074 709.205 344.948 708.901 340.496 706.743C336.043 704.585 332.628 700.75 331 696.077C329.371 691.405 329.662 686.277 331.808 681.819C333.954 677.36 337.78 673.935 342.448 672.294L372.314 656.527C373.17 656.076 374.112 655.814 375.077 655.76C376.043 655.706 377.009 655.861 377.909 656.214C378.809 656.567 379.623 657.109 380.295 657.805C380.966 658.501 381.48 659.333 381.801 660.245Z" fill="#007BFF"/>
<path d="M224.409 581.789C223.832 582.382 223.209 582.929 222.546 583.424L226.401 657.488L242.437 665.699L233.21 691.523L203.409 679.746C201.001 678.795 198.967 677.088 197.612 674.882C196.257 672.676 195.654 670.09 195.894 667.512L203.701 583.498C201.146 581.592 199.232 578.953 198.214 575.932C197.195 572.912 197.12 569.652 197.999 566.588C198.878 563.524 200.669 560.8 203.134 558.778C205.598 556.757 208.62 555.534 211.796 555.272C214.973 555.009 218.154 555.721 220.917 557.311C223.68 558.901 225.893 561.295 227.262 564.173C228.631 567.052 229.091 570.279 228.582 573.426C228.072 576.573 226.617 579.49 224.409 581.789Z" fill="#FFB8B8"/>
<path d="M229.989 656.214C230.889 655.86 231.855 655.705 232.82 655.76C233.786 655.814 234.728 656.075 235.583 656.527L265.45 672.294C270.117 673.935 273.944 677.36 276.09 681.819C278.236 686.277 278.526 691.405 276.898 696.077C275.269 700.75 271.854 704.585 267.402 706.743C262.95 708.901 257.823 709.205 253.147 707.589L219.883 701.147C218.934 700.963 218.036 700.577 217.249 700.014C216.463 699.452 215.807 698.726 215.326 697.887C214.845 697.048 214.55 696.115 214.462 695.152C214.374 694.189 214.495 693.219 214.816 692.306L226.097 660.245C226.417 659.333 226.931 658.5 227.603 657.804C228.274 657.109 229.088 656.566 229.989 656.214Z" fill="#007BFF"/>
<path d="M319.461 625.174C319.268 620.488 320.444 615.848 322.844 611.82C325.245 607.792 328.767 604.55 332.979 602.491C344.143 596.727 351.156 584.433 348.083 573.207C344.149 558.837 324.594 549.518 308.749 554.461C304.461 555.984 300.325 557.906 296.396 560.203L286.044 565.753C281.622 567.967 277.358 570.484 273.283 573.287C267.18 577.785 262.396 583.84 259.432 590.819C256.467 597.798 255.431 605.445 256.431 612.961C258.47 627.57 268.036 640.967 281.13 650.14C286.138 653.883 291.921 656.454 298.055 657.663C304.331 658.698 311.319 657.522 315.908 653.619C323.08 647.518 322.339 637.302 320.019 628.769C319.713 627.593 319.526 626.388 319.461 625.174Z" fill="#2F2E41"/>
</g>
<defs>
<clipPath id="clip0_6_2">
<rect width="654" height="1163" fill="white"/>
</clipPath>
</defs>
</svg>
