<svg width="888" height="882" viewBox="0 0 888 882" fill="none" xmlns="http://www.w3.org/2000/svg">
<g clip-path="url(#clip0_3_269)">
<path d="M516.326 571.018V756.013L547.27 806.443L549.625 810.279H671.722L674.189 571.018H516.326Z" fill="#363636"/>
<path opacity="0.1" d="M516.326 571.018V756.013L547.27 806.443L549.169 571.018H516.326Z" fill="black"/>
<path d="M221.566 566.084V751.08L190.622 801.51L188.267 805.345H66.1699L63.7029 566.084H221.566Z" fill="#363636"/>
<path opacity="0.1" d="M221.566 566.084V751.08L190.622 801.51L188.723 566.084H221.566Z" fill="black"/>
<path d="M711.188 562.385V573.484H47.6699V557.451L109.335 525.385H656.923L711.188 562.385Z" fill="#363636"/>
<path opacity="0.1" d="M711.188 562.385V573.484H47.6699V557.451L711.188 562.385Z" fill="black"/>
<path d="M142.635 617.883H113.035L100.702 609.25H156.201L142.635 617.883Z" fill="#F2F2F2"/>
<path d="M142.635 653.649H113.035L100.702 645.016H156.201L142.635 653.649Z" fill="#F2F2F2"/>
<path d="M142.635 704.215H113.035L100.702 695.581H156.201L142.635 704.215Z" fill="#F2F2F2"/>
<path d="M142.635 754.78H113.035L100.702 746.147H156.201L142.635 754.78Z" fill="#F2F2F2"/>
<path d="M595.257 622.816H624.857L637.19 614.183H581.691L595.257 622.816Z" fill="#F2F2F2"/>
<path d="M595.257 658.582H624.857L637.19 649.949H581.691L595.257 658.582Z" fill="#F2F2F2"/>
<path d="M595.257 709.148H624.857L637.19 700.515H581.691L595.257 709.148Z" fill="#F2F2F2"/>
<path d="M595.257 759.713H624.857L637.19 751.08H581.691L595.257 759.713Z" fill="#F2F2F2"/>
<path d="M481.452 548.952V552.117H311.202V549.585L311.436 548.952L315.632 537.56H477.971L481.452 548.952Z" fill="#F2F2F2"/>
<path d="M546.97 545.854C546.659 547.18 545.489 548.579 542.843 549.901C533.35 554.648 514.046 548.636 514.046 548.636C514.046 548.636 499.173 546.104 499.173 539.459C499.59 539.173 500.026 538.914 500.477 538.683C504.468 536.572 517.702 531.361 541.167 538.904C542.896 539.447 544.44 540.458 545.628 541.827C546.154 542.344 546.55 542.979 546.783 543.679C547.016 544.379 547.08 545.124 546.97 545.854Z" fill="#F2F2F2"/>
<path opacity="0.1" d="M546.97 545.854C535.35 550.306 524.992 550.639 514.363 543.256C510.343 540.284 505.476 538.681 500.477 538.683C504.468 536.572 517.702 531.361 541.167 538.904C542.896 539.447 544.44 540.458 545.628 541.827C546.154 542.344 546.55 542.979 546.783 543.679C547.016 544.379 547.08 545.124 546.97 545.854Z" fill="black"/>
<path d="M532.4 543.256C534.672 543.256 536.514 542.689 536.514 541.99C536.514 541.291 534.672 540.724 532.4 540.724C530.128 540.724 528.286 541.291 528.286 541.99C528.286 542.689 530.128 543.256 532.4 543.256Z" fill="#363636"/>
<path opacity="0.1" d="M481.452 548.952V552.117H311.202V549.585L311.436 548.952H481.452Z" fill="black"/>
<path d="M94.6614 191C92.9336 190.858 91.2034 191.245 89.7002 192.108C88.2242 193.119 87.2939 194.89 86.3443 196.538C82.7136 202.914 77.7984 208.466 71.91 212.843C67.6211 215.985 62.1683 219.902 62.9021 225.695C63.2892 227.608 63.996 229.443 64.9927 231.121C68.9493 239.108 79.7462 245.28 78.6842 254.394C82.6152 247.813 77.3572 244.559 81.2882 237.978C83.1603 234.844 86.4124 231.306 89.2388 233.274C90.1851 233.933 90.8066 235.115 91.7919 235.694C94.1432 237.073 96.6445 234.436 98.7258 232.567C105.903 226.125 116.109 227.812 125.04 229.82C129.256 230.768 133.887 232.011 136.379 236.041C139.656 241.339 133.266 247.061 131.651 253.051C131.519 253.561 131.513 254.096 131.633 254.61C131.753 255.123 131.995 255.6 132.34 255.999C132.684 256.398 133.12 256.708 133.61 256.902C134.1 257.096 134.63 257.169 135.154 257.113C137.834 256.849 141.008 256.632 141.167 255.456C144.539 255.576 148.67 255.194 150.114 251.684C150.556 250.295 150.789 248.848 150.807 247.391C151.337 241.493 153.84 236.113 155.498 230.501C157.156 224.888 157.877 218.31 155.079 213.334C154.08 211.678 152.845 210.177 151.413 208.878C135.534 193.511 114.656 190.977 94.6614 191Z" fill="#2F2E41"/>
<path d="M82.1378 265.905C82.1378 265.905 85.5911 294.684 72.9286 296.986C60.2662 299.288 84.44 338.427 84.44 338.427L141.997 345.334L128.183 299.288C128.183 299.288 118.974 295.835 124.73 272.812C130.485 249.789 82.1378 265.905 82.1378 265.905Z" fill="#FFB8B8"/>
<path d="M47.0281 760.318L51.6331 823.631H75.8061L68.9001 760.318H47.0281Z" fill="#FFB8B8"/>
<path d="M224.303 640.6L227.756 693.552L254.233 682.041L243.872 638.298L224.303 640.6Z" fill="#FFB8B8"/>
<path d="M29.761 518.58C29.761 518.58 30.9121 585.345 37.819 607.217C44.7258 629.089 43.5747 630.24 42.4235 633.693C41.2724 637.147 40.1212 634.844 40.1212 640.6C40.1212 646.356 37.819 737.295 40.1212 745.353C42.4235 753.411 33.2144 767.225 40.1212 768.376C47.0281 769.527 79.2599 768.376 80.411 761.469C81.5622 754.563 71.2019 752.26 75.8065 747.656C80.411 743.051 87.3178 648.658 87.3178 648.658L103.434 583.043L133.363 548.509H196.676L216.245 624.484C216.245 624.484 208.187 646.356 213.943 646.356C219.698 646.356 254.233 653.263 254.233 627.938C254.233 602.613 242.721 527.789 240.419 525.486C238.117 523.184 241.57 515.126 238.117 511.673C234.663 508.219 194.373 484.046 179.409 479.441C164.444 474.836 143.451 469.356 143.451 469.356L29.761 518.58Z" fill="#2F2E41"/>
<path d="M254.233 672.832C254.233 672.832 236.966 667.076 228.908 684.343C220.85 701.61 224.303 706.215 224.303 706.215C224.303 706.215 250.779 715.424 255.384 710.819C257.387 708.816 263.748 708.12 270.296 707.973C280.269 707.749 282.923 693.64 273.504 690.354C273.223 690.256 272.939 690.171 272.651 690.099C263.442 687.797 254.233 672.832 254.233 672.832Z" fill="#2F2E41"/>
<path d="M108.038 284.899C127.111 284.899 142.572 269.437 142.572 250.365C142.572 231.292 127.111 215.831 108.038 215.831C88.9656 215.831 73.5042 231.292 73.5042 250.365C73.5042 269.437 88.9656 284.899 108.038 284.899Z" fill="#FFB8B8"/>
<path d="M63.1439 311.375C63.1439 311.375 119.55 322.886 133.363 304.468C147.177 286.05 152.933 356.269 152.933 356.269L159.839 429.942L149.479 470.232C149.479 470.232 95.3757 513.975 78.1087 517.428C60.8416 520.882 34.3655 523.184 34.3655 523.184C34.3655 523.184 42.4235 395.408 42.4235 393.106C42.4235 390.803 63.1439 311.375 63.1439 311.375Z" fill="#007BFF"/>
<path d="M80.2982 289.786C80.2982 289.786 67.7484 282.597 64.295 289.504C60.8416 296.41 28.6098 313.677 25.1563 313.677C21.7029 313.677 32.0632 409.222 27.4586 420.733C22.8541 432.244 0.982489 516.277 13.645 523.184C26.3075 530.091 17.0984 516.277 29.7609 533.544C42.4234 550.811 104.585 550.811 108.038 543.905C111.492 536.998 80.4109 485.197 86.1666 436.849C91.9222 388.501 101.131 321.735 93.0734 312.526C85.0154 303.317 80.2982 289.786 80.2982 289.786Z" fill="#2F2E41"/>
<path d="M121.852 297.561L123.455 292.043C123.455 292.043 171.351 307.922 173.653 318.282C175.955 328.642 174.804 401.164 166.746 406.919C158.688 412.675 147.177 421.884 155.235 435.698C163.293 449.511 172.502 464.476 179.409 465.627C186.316 466.778 198.978 474.836 195.525 482.894C192.071 490.952 150.63 475.988 150.63 475.988C150.63 475.988 123.003 455.267 124.154 423.035C125.305 390.803 121.852 297.561 121.852 297.561Z" fill="#2F2E41"/>
<path d="M162.142 433.396L134.514 485.197C134.514 485.197 94.2246 526.638 117.247 531.242C140.27 535.847 152.933 493.255 152.933 493.255L182.862 450.663L162.142 433.396Z" fill="#FFB8B8"/>
<path d="M96.3439 200.036C94.9519 199.933 93.5577 200.203 92.3052 200.819C91.1728 201.646 90.2394 202.716 89.5734 203.95C86.503 208.569 82.5006 212.494 77.8233 215.474C74.3319 217.695 69.8932 220.464 70.4905 224.558C70.8148 225.931 71.3919 227.231 72.1923 228.393C75.4243 234.095 76.7109 240.695 75.8575 247.194L85.4576 233.24C86.9815 231.024 89.6289 228.524 91.9297 229.915C92.7001 230.381 93.2059 231.216 94.008 231.625C95.922 232.6 97.9583 230.736 99.6525 229.415C105.495 224.862 113.803 226.055 121.073 227.473C124.505 228.143 128.275 229.022 130.304 231.87C133.676 236.603 130.155 243.442 132.123 248.91C132.674 248.525 133.142 248.032 133.499 247.462C133.856 246.893 134.095 246.257 134.201 245.593C136.946 245.678 140.309 245.408 141.485 242.927C141.843 241.954 142.033 240.928 142.049 239.892C142.48 235.724 144.518 231.922 145.867 227.955C147.217 223.988 147.804 219.338 145.526 215.821C144.693 214.629 143.687 213.568 142.542 212.672C129.616 201.811 112.621 200.02 96.3439 200.036Z" fill="#2F2E41"/>
<path d="M162.142 313.677L172.867 316.524C172.867 316.524 197.827 380.443 192.071 424.186C186.316 467.93 182.862 458.721 182.862 458.721C182.862 458.721 173.653 438 152.933 442.605L162.142 313.677Z" fill="#2F2E41"/>
<path d="M48.6228 815.263C45.8469 819.036 46.4035 824.428 43.9445 828.414C41.8131 831.869 37.7962 833.681 35.1301 836.743C34.2794 837.76 33.5211 838.851 32.864 840.003C30.3909 844.145 28.3807 849.454 30.8164 853.619C32.7757 856.969 36.8942 858.279 40.6714 859.171C45.4454 860.299 50.4057 861.202 55.2349 860.34C60.0641 859.478 64.7837 856.521 66.5056 851.927C66.844 850.772 67.2463 849.637 67.7107 848.527C70.3281 843.374 78.5382 843.318 81.217 838.197C83.0916 834.613 81.3684 830.28 79.6458 826.621L74.3847 815.444C72.6388 811.735 65.5611 813.868 61.8713 812.979C57.059 811.82 52.0847 810.543 48.6228 815.263Z" fill="#2F2E41"/>
<path d="M10.1917 456.418L58.5394 531.242C58.5394 531.242 88.4689 569.23 97.678 551.963C106.887 534.696 65.4462 505.917 65.4462 505.917L34.3655 448.36L10.1917 456.418Z" fill="#FFB8B8"/>
<path d="M34.3655 315.98L25.1564 313.677C25.1564 313.677 6.73826 319.433 2.13372 343.607C-2.47081 367.781 0.982583 464.476 6.73826 465.627C12.4939 466.778 35.1655 448.791 38.7945 452.604C42.4235 456.418 30.9121 436.849 34.3655 426.489C37.8189 416.128 34.3655 315.98 34.3655 315.98Z" fill="#2F2E41"/>
</g>
<g filter="url(#filter0_f_3_269)">
<circle cx="447" cy="441" r="91" fill="#007BFF"/>
</g>
<g clip-path="url(#clip1_3_269)">
<path d="M284.251 531.353C284.251 531.712 284.539 532 284.898 532H607.353C607.712 532 608 531.712 608 531.353C608 530.995 607.712 530.707 607.353 530.707H284.898C284.539 530.707 284.251 530.995 284.251 531.353Z" fill="#F2F2F2"/>
<path d="M451.462 467.547C450.577 472.912 445.906 477.017 440.293 477.017C434.679 477.017 430.009 472.912 429.124 467.547H400.548V529.452H480.037V467.547H451.462Z" fill="#F2F2F2"/>
<path d="M409.791 529.221H401.935V530.607H409.791V529.221Z" fill="#F2F2F2"/>
<path d="M479.344 529.452H471.488V530.838H479.344V529.452Z" fill="#F2F2F2"/>
<path d="M480.269 524.547H400.779V526.702H480.269V524.547Z" fill="#363636"/>
<path d="M600.154 469.164H280.431C277.988 469.164 276 467.176 276 464.734V282.335C276 279.893 277.988 277.905 280.431 277.905H600.154C602.598 277.905 604.586 279.893 604.586 282.335V464.734C604.586 467.176 602.598 469.164 600.154 469.164Z" fill="#F2F2F2"/>
<path d="M596.96 285.759H284.088V462.234H596.96V285.759Z" fill="#363636"/>
<path d="M559.789 353.532H542.717C541.234 353.532 540.027 352.326 540.027 350.843C540.027 349.36 541.234 348.154 542.717 348.154H559.789C561.273 348.154 562.48 349.36 562.48 350.843C562.48 352.326 561.273 353.532 559.789 353.532Z" fill="#D1D1D2"/>
<path d="M579.422 353.532H571.455C569.972 353.532 568.765 352.326 568.765 350.843C568.765 349.36 569.972 348.154 571.455 348.154H579.422C580.906 348.154 582.113 349.36 582.113 350.843C582.113 352.326 580.906 353.532 579.422 353.532Z" fill="#D1D1D2"/>
<path d="M388.863 355.586H336.899C334.246 355.586 332.088 353.429 332.088 350.777C332.088 348.126 334.246 345.968 336.899 345.968H388.863C391.515 345.968 393.673 348.126 393.673 350.777C393.673 353.429 391.515 355.586 388.863 355.586Z" fill="#007BFF"/>
<path d="M360.689 368.416H335.647C334.03 368.416 332.714 367.101 332.714 365.485C332.714 363.868 334.03 362.553 335.647 362.553H360.689C362.306 362.553 363.622 363.868 363.622 365.485C363.622 367.101 362.306 368.416 360.689 368.416Z" fill="#D1D1D2"/>
<path d="M498.738 379.994H335.021C333.404 379.994 332.088 378.679 332.088 377.063C332.088 375.446 333.404 374.131 335.021 374.131H498.738C500.354 374.131 501.67 375.446 501.67 377.063C501.67 378.679 500.354 379.994 498.738 379.994Z" fill="#D1D1D2"/>
<path d="M484.651 387.817H335.021C333.404 387.817 332.088 386.502 332.088 384.886C332.088 383.269 333.404 381.954 335.021 381.954H484.651C486.268 381.954 487.583 383.269 487.583 384.886C487.583 386.502 486.268 387.817 484.651 387.817Z" fill="#D1D1D2"/>
<path d="M578.933 500.74L571.423 508.623L563.419 501.227L570.929 493.344L578.933 500.74Z" fill="#ED9DA0"/>
<path d="M584.932 508.814L568.968 525.57C567.604 527.002 565.9 528.133 564.04 528.842L559.589 530.538C558.669 530.888 557.609 530.685 556.89 530.02C556.046 529.24 555.833 527.991 556.371 526.982L560.652 518.955L565.22 502.676L565.269 502.706C566.512 503.471 568.397 504.619 568.531 504.668C570.897 504.751 572.591 504.157 573.565 502.9C575.266 500.709 574.187 497.211 574.176 497.176L574.167 497.149L574.189 497.131C574.685 496.708 575.207 496.538 575.741 496.627C576.874 496.817 577.685 498.09 577.804 498.286C578.868 498.241 582.134 500.798 582.397 501.005C584.001 501.001 585.176 501.381 585.891 502.135C586.516 502.795 586.788 503.73 586.7 504.917C586.594 506.344 585.966 507.728 584.932 508.814Z" fill="#2F2E41"/>
<path d="M570.263 509.816H559.288V520.625H570.263V509.816Z" fill="#ED9DA0"/>
<path d="M568.39 530.458H545.06C543.066 530.458 541.062 530.008 539.265 529.157L534.964 527.121C534.075 526.7 533.5 525.8 533.5 524.829C533.5 523.689 534.279 522.681 535.394 522.377L544.267 519.959L559.447 512.101L559.458 512.157C559.742 513.573 560.182 515.712 560.238 515.842C561.794 517.598 563.394 518.408 564.991 518.248C567.777 517.97 569.629 514.802 569.647 514.77L569.661 514.745L569.69 514.748C570.342 514.815 570.825 515.074 571.124 515.518C571.759 516.462 571.372 517.916 571.308 518.135C572.069 518.868 572.411 522.964 572.437 523.295C573.538 524.444 574.061 525.548 573.991 526.577C573.931 527.477 573.424 528.313 572.485 529.062C571.356 529.962 569.901 530.458 568.39 530.458Z" fill="#2F2E41"/>
<path d="M571.566 373.679L532.675 373.698L519.711 454.541L558.602 500.748L571.566 489.196L540.831 454.541L571.566 373.679Z" fill="#2F2E41"/>
<path d="M548.579 385.596L571.566 373.679V512.299L558.602 512.655L548.579 385.596Z" fill="#2F2E41"/>
<path d="M525.554 406.097L525.827 393.478L518.457 393.319L518.183 405.938C516.808 407.214 515.9 409.196 515.851 411.444C515.766 415.378 518.337 418.624 521.593 418.695C524.85 418.765 527.559 415.634 527.644 411.7C527.693 409.452 526.872 407.432 525.554 406.097Z" fill="#ED9DA0"/>
<path d="M560.504 282.86C560.504 282.86 571.084 282.837 567.132 272.646C563.179 262.456 555.82 267.018 555.82 267.018C555.82 267.018 552.719 268.656 553.358 272.309" fill="#090814"/>
<path d="M561.563 287.748C561.563 279.935 555.227 273.601 547.411 273.601C539.595 273.601 533.259 279.935 533.259 287.748C533.259 294.084 537.426 299.447 543.171 301.248L545.907 319.323L559.854 307.704C559.854 307.704 556.841 303.868 555.225 299.542C559.044 297.008 561.563 292.673 561.563 287.748Z" fill="#ED9DA0"/>
<path d="M554.21 299.699C554.21 299.699 556.09 292.496 553.017 289.184C549.951 285.88 549.555 291.021 549.555 291.021L547.342 290.54C547.342 290.54 547.727 285.54 543.398 284.675L546.188 278.713C546.188 278.713 535.508 280.786 535.214 279.752C532.898 271.617 554.993 264.667 561.097 277.079C570.59 296.384 554.21 299.699 554.21 299.699Z" fill="#090814"/>
<path d="M541.71 312.302C531.435 314.309 523.723 322.861 522.788 333.284L516.393 404.566H527.615L541.71 312.302Z" fill="#007BFF"/>
<path d="M531.098 369.095L529.35 389.222L576.795 375.273L571.014 360.726L581.779 336.016L559.804 304.53L542.262 305.726L535.484 314.494" fill="#007BFF"/>
<path d="M569.789 388.209L576.406 377.46L570.128 373.598L563.51 384.347C561.679 384.753 559.893 386.005 558.714 387.92C556.651 391.271 557.228 395.371 560.002 397.077C562.776 398.784 566.697 397.451 568.76 394.1C569.939 392.185 570.252 390.027 569.789 388.209Z" fill="#ED9DA0"/>
<path d="M556.216 304.929L560.041 304.77L566.582 309.711C574.332 311.032 576.58 311.403 578.954 316.52C579.952 318.671 580.614 320.962 580.983 323.303L586.517 358.334L572.609 391.813L563.392 381.45L573.245 355.276L571.608 349.015" fill="#007BFF"/>
</g>
<defs>
<filter id="filter0_f_3_269" x="6" y="0" width="882" height="882" filterUnits="userSpaceOnUse" color-interpolation-filters="sRGB">
<feFlood flood-opacity="0" result="BackgroundImageFix"/>
<feBlend mode="normal" in="SourceGraphic" in2="BackgroundImageFix" result="shape"/>
<feGaussianBlur stdDeviation="175" result="effect1_foregroundBlur_3_269"/>
</filter>
<clipPath id="clip0_3_269">
<rect width="711.188" height="669.683" fill="white" transform="translate(0 191)"/>
</clipPath>
<clipPath id="clip1_3_269">
<rect width="332" height="266" fill="white" transform="translate(276 266)"/>
</clipPath>
</defs>
</svg>
